#!OML:ASF F:\VICON\USERDATA\INSTALL\rory3\rory3.ASF
:FULLY-SPECIFIED
:DEGREES
1541
root -1.47828 16.3495 3.55333 -539.465 -139.744 537.744
lowerback 11.7149 -0.555045 -2.74564
upperback -1.66307 -1.31004 -1.90785
thorax -8.35029 -0.559828 -0.234504
lowerneck -14.1397 -13.4649 -16.071
upperneck -17.2495 -15.1573 15.3565
head -0.522658 -7.11413 6.45586
rclavicle 7.1637e-014 1.74931e-014
rhumerus 53.8257 -27.1579 -31.6641
rradius 67.1459
rwrist -2.02104
rhand -33.7156 4.05191
rfingers 7.12502
rthumb -6.90506 -25.8155
lclavicle 7.1637e-014 1.74931e-014
lhumerus 73.8892 37.8466 33.93
lradius 62.0049
lwrist 7.90528
lhand -25.1101 22.821
lfingers 7.12502
lthumb 1.4052 52.7961
rfemur -23.7299 -7.974 22.5049
rtibia 63.47
rfoot -27.2163 -1.51372
rtoes -14.5622
lfemur -18.18 -5.4863 -11.9748
ltibia 57.6174
lfoot -27.2451 0.551753
ltoes -23.4133
1542
root -1.44829 16.2471 3.54725 -539.611 -140.6 537.917
lowerback 12.0406 -0.792041 -2.63371
upperback -1.49236 -1.59859 -1.69857
thorax -8.3447 -0.699463 -0.0167079
lowerneck -13.379 -13.2962 -16.2864
upperneck -18.0411 -14.996 15.4284
head -0.864042 -7.0509 6.61023
rclavicle 5.67779e-014 7.95139e-016
rhumerus 53.2452 -28.1635 -31.9973
rradius 69.2733
rwrist -4.23922
rhand -35.4281 2.51142
rfingers 7.12502
rthumb -8.55793 -27.2951
lclavicle 5.67779e-014 7.95139e-016
lhumerus 72.7075 38.6348 33.8675
lradius 62.807
lwrist 7.88737
lhand -25.833 22.2878
lfingers 7.12502
lthumb 0.707074 52.2663
rfemur -24.4513 -8.71572 22.3475
rtibia 64.8918
rfoot -28.1624 -1.7499
rtoes -14.7087
lfemur -19.146 -5.86589 -12.0139
ltibia 58.8496
lfoot -28.0325 -0.0328428
ltoes -22.8528
1543
root -1.42489 16.1681 3.55012 -539.631 -141.354 537.89
lowerback 12.1846 -0.987771 -2.37685
upperback -1.31744 -1.79991 -1.45974
thorax -8.23363 -0.804204 0.132357
lowerneck -13.1396 -13.027 -15.9987
upperneck -18.2558 -14.747 14.7801
head -1.08777 -6.93636 6.42998
rclavicle -1.76173e-014 1.66979e-014
rhumerus 52.6475 -29.1913 -32.2077
rradius 71.2861
rwrist -6.17886
rhand -37.1772 1.65998
rfingers 7.12502
rthumb -10.2456 -28.0705
lclavicle -1.76173e-014 1.66979e-014
lhumerus 71.5474 39.2245 33.7801
lradius 63.5211
lwrist 8.06376
lhand -26.815 22.1755
lfingers 7.12502
lthumb -0.241371 52.1551
rfemur -24.867 -9.16214 22.3228
rtibia 65.9391
rfoot -29.0782 -2.04316
rtoes -15.0229
lfemur -19.9816 -6.25049 -11.8287
ltibia 59.8802
lfoot -28.7467 -1.15852
ltoes -21.8574
1544
root -1.40935 16.1006 3.55388 -539.816 -142.02 537.973
lowerback 12.3377 -1.11095 -2.35217
upperback -1.16216 -1.93648 -1.17104
thorax -8.14108 -0.865651 0.45304
lowerneck -12.6465 -12.8655 -16.1303
upperneck -18.6463 -14.5964 14.5977
head -1.30604 -6.86294 6.45994
rclavicle -1.86609e-014 -5.56597e-015
rhumerus 51.9939 -30.2326 -32.1173
rradius 73.1873
rwrist -7.395
rhand -39.112 1.22269
rfingers 7.12502
rthumb -12.1117 -28.4068
lclavicle -1.86609e-014 -5.56597e-015
lhumerus 70.4046 39.6109 33.7766
lradius 64.0013
lwrist 8.3271
lhand -27.3622 22.1516
lfingers 7.12502
lthumb -0.769948 52.13
rfemur -24.957 -9.39902 22.1814
rtibia 66.6479
rfoot -29.8801 -2.48459
rtoes -16.2648
lfemur -20.477 -6.55497 -11.7254
ltibia 60.6264
lfoot -29.3541 -2.3886
ltoes -20.8265
1545
root -1.39941 16.0387 3.55533 -540.058 -142.604 538.083
lowerback 12.4834 -1.21427 -2.41491
upperback -1.06543 -2.06428 -0.914629
thorax -8.10486 -0.919176 0.787496
lowerneck -12.1184 -12.7554 -16.5292
upperneck -18.7973 -14.4689 14.777
head -1.39665 -6.79521 6.62247
rclavicle -9.0621e-014 9.54166e-015
rhumerus 51.2975 -31.1921 -31.8841
rradius 74.8891
rwrist -8.00475
rhand -41.2416 1.17295
rfingers 7.12502
rthumb -14.1645 -28.3242
lclavicle -9.0621e-014 9.54166e-015
lhumerus 69.2708 39.7747 33.6608
lradius 64.1362
lwrist 8.43624
lhand -27.8722 21.7885
lfingers 7.12502
lthumb -1.26251 51.7646
rfemur -24.8387 -9.51344 22.0327
rtibia 67.0497
rfoot -30.8097 -2.83911
rtoes -16.6933
lfemur -20.7144 -6.65106 -11.6502
ltibia 61.0919
lfoot -29.9911 -3.45744
ltoes -20.1674
1546
root -1.39568 15.9876 3.55384 -540.296 -142.912 538.234
lowerback 12.5543 -1.24599 -2.597
upperback -1.01408 -2.11957 -0.726149
thorax -8.0745 -0.93404 1.10195
lowerneck -11.8771 -12.4663 -16.454
upperneck -18.5307 -14.1569 14.4337
head -1.43376 -6.64162 6.54051
rclavicle -1.09332e-014 6.36111e-015
rhumerus 50.836 -32.1406 -31.9756
rradius 76.2575
rwrist -7.1066
rhand -42.9156 1.06085
rfingers 7.12502
rthumb -15.7771 -28.3162
lclavicle -1.09332e-014 6.36111e-015
lhumerus 68.1613 39.8045 33.3043
lradius 64.0602
lwrist 8.58092
lhand -28.3845 21.9381
lfingers 7.12502
lthumb -1.75727 51.9107
rfemur -24.6479 -9.38288 21.9242
rtibia 67.1853
rfoot -31.7873 -3.09511
rtoes -16.2119
lfemur -20.7475 -6.40035 -11.5874
ltibia 61.2602
lfoot -30.5591 -4.63333
ltoes -18.8927
1547
root -1.39665 15.9531 3.55326 -540.514 -143.08 538.377
lowerback 12.5978 -1.16607 -2.8611
upperback -1.11478 -2.0342 -0.451942
thorax -8.19202 -0.870924 1.52871
lowerneck -11.212 -12.2719 -16.7179
upperneck -18.336 -13.995 14.1718
head -1.50296 -6.5537 6.54388
rclavicle 1.84249e-014 -5.56597e-015
rhumerus 50.4049 -32.992 -31.7695
rradius 77.272
rwrist -5.12693
rhand -43.8655 0.712678
rfingers 7.12502
rthumb -16.6917 -28.5897
lclavicle 1.84249e-014 -5.56597e-015
lhumerus 67.0073 39.47 33.0253
lradius 63.6708
lwrist 8.78628
lhand -28.7769 22.3609
lfingers 7.12502
lthumb -2.1362 52.33
rfemur -24.3301 -9.17891 21.8722
rtibia 67.0306
rfoot -32.7056 -3.40905
rtoes -15.3462
lfemur -20.5768 -5.96843 -11.5595
ltibia 61.1406
lfoot -30.965 -5.41265
ltoes -18.4402
1548
root -1.4 15.9419 3.55844 -540.757 -143.203 538.686
lowerback 12.4651 -1.05713 -3.13779
upperback -1.22588 -1.91402 -0.275641
thorax -8.22699 -0.793912 1.8473
lowerneck -10.7212 -12.2699 -17.0263
upperneck -18.0804 -14.0586 13.9651
head -1.4915 -6.57253 6.53526
rclavicle -3.35449e-014 5.96354e-015
rhumerus 50.1604 -33.8731 -31.6129
rradius 77.8987
rwrist -2.97357
rhand -44.7337 0.722538
rfingers 7.12502
rthumb -17.5274 -28.5073
lclavicle -3.35449e-014 5.96354e-015
lhumerus 65.9343 38.9712 32.7912
lradius 63.1719
lwrist 8.9208
lhand -28.5869 22.8396
lfingers 7.12502
lthumb -1.95279 52.8104
rfemur -23.9316 -9.12462 21.6913
rtibia 66.5912
rfoot -33.4991 -3.88531
rtoes -15.1317
lfemur -20.2817 -5.36182 -11.743
ltibia 60.7047
lfoot -31.2109 -5.91152
ltoes -18.2322
1549
root -1.4064 15.9597 3.56656 -540.926 -143.394 538.944
lowerback 12.2097 -1.13471 -3.26095
upperback -1.17915 -2.02196 -0.240534
thorax -8.01929 -0.844982 1.9659
lowerneck -10.8996 -12.1433 -16.7834
upperneck -17.7274 -13.9117 13.6497
head -1.4274 -6.50244 6.39137
rclavicle -2.13694e-015 -5.56597e-015
rhumerus 50.6052 -34.7024 -32.1079
rradius 78.1669
rwrist -1.326
rhand -45.8742 0.900993
rfingers 7.12502
rthumb -18.6247 -28.2274
lclavicle -2.13694e-015 -5.56597e-015
lhumerus 64.7759 38.7714 32.1228
lradius 62.7312
lwrist 9.3176
lhand -28.14 23.0467
lfingers 7.12502
lthumb -1.52117 53.021
rfemur -23.4595 -9.17153 21.5703
rtibia 65.8567
rfoot -33.967 -4.58826
rtoes -15.6983
lfemur -19.8761 -4.67495 -11.9197
ltibia 59.93
lfoot -31.2741 -6.46275
ltoes -17.6286
1550
root -1.41783 16.0062 3.5732 -541.079 -143.587 539.206
lowerback 11.9558 -1.23945 -3.43724
upperback -1.1651 -2.17144 -0.173601
thorax -7.84188 -0.91256 2.15522
lowerneck -10.8844 -11.9969 -16.6964
upperneck -17.5954 -13.7408 13.4907
head -1.43396 -6.41968 6.34147
rclavicle -1.94064e-014 7.15625e-015
rhumerus 51.3459 -35.3696 -32.4848
rradius 78.1714
rwrist -0.456295
rhand -47.0408 0.771111
rfingers 7.12502
rthumb -19.7465 -28.2459
lclavicle -1.94064e-014 7.15625e-015
lhumerus 63.4362 38.5611 31.1965
lradius 62.1043
lwrist 10.0856
lhand -27.6925 22.9751
lfingers 7.12502
lthumb -1.0889 52.9521
rfemur -22.9152 -9.20328 21.4503
rtibia 64.8718
rfoot -34.0109 -5.30484
rtoes -16.4005
lfemur -19.3504 -4.04773 -12.1257
ltibia 58.8546
lfoot -31.1807 -6.7637
ltoes -17.7535
